<?xml version="1.0" encoding="iso-8859-1"?>
<!-- Uploaded to: SVG Repo, www.svgrepo.com, Generator: SVG Repo Mixer Tools -->
<svg height="100px" width="100px" version="1.1" id="Layer_1" xmlns="http://www.w3.org/2000/svg" xmlns:xlink="http://www.w3.org/1999/xlink" 
	 viewBox="0 0 512.001 512.001" xml:space="preserve">
<g>
	<path style="fill:#FFA0C1;" d="M388.591,267.222l0.006-0.005l-19.162-15.31l-131.743-34.471l-120.015-79.936l-16.732-1.001
		l0.002,0.01c-15.633,20.145-29.778,42.842-41.629,67.839l-0.056,0.136l-4.995,34.732l56.378,52.395l57.679,35.972l69.841,31.738
		l82.18,14.984l31.14-14.987l13.312-15.991l0.056-0.109C375.895,317.845,383.695,292.254,388.591,267.222z"/>
	<path style="fill:#FFA0C1;" d="M319.07,38.363c-34.696-15.767-81.296-8.494-127.285,17.642l-0.894,0.509l40.155,53.768
		l107.21,48.721l51.44-12.144C379.261,94.534,353.99,54.231,319.07,38.363z"/>
	<path style="fill:#FFA0C1;" d="M393.857,229.466c0.928-11.172,1.281-22.142,1.079-32.833l-0.016-0.804l-123.412-52.803
		l-120.941-58.24c-8.398,7.02-16.637,14.675-24.637,22.924l-0.013-0.003l7.68,28.562l109.141,70.074l129.295,39.856l21.835-16.723
		L393.857,229.466z"/>
</g>
<path style="fill:#94D77F;" d="M394.919,195.828c-0.369-17.154-2.154-33.581-5.223-48.97
	c-29.782-2.952-66.309-12.251-106.137-30.351s-70.856-39.501-92.666-59.993c-13.612,7.809-27.16,17.266-40.325,28.271
	c28.512,28.778,68.053,55.37,112.97,75.782C308.453,180.977,354.49,193.276,394.919,195.828z"/>
<path style="fill:#61CCFF;" d="M232.464,228.94c52.142,23.695,105.435,37.275,150.063,38.236c2.053,0.044,4.071,0.051,6.071,0.041
	c2.497-12.762,4.239-25.377,5.268-37.745c-3.39,0.122-6.897,0.151-10.527,0.072c-39.645-0.854-87.696-13.239-135.301-34.872
	s-88.536-49.685-115.253-78.989c-2.447-2.684-4.732-5.345-6.869-7.979c-8.64,8.909-16.998,18.518-24.97,28.793
	c1.309,1.514,2.64,3.03,4.023,4.547C135.044,174.029,180.323,205.245,232.464,228.94z"/>
<g>
	<path style="fill:#FFA0C1;" d="M253.092,470.258l-0.055-11.956l-32.443-5.293l-42.59-12.857l-34.414-15.639l-20.904-9.5
		l-76.369-47.699l-9.206,4.794l0.018,0.03c13.945,47.03,46.839,80.474,85.67,98.121c38.835,17.648,85.668,20.432,130.271,0.001
		L253.092,470.258z"/>
	<path style="fill:#FFA0C1;" d="M332.089,402.003l-10.698-13.048l-73.315-8.116l-80.789-32.776l-20.56-9.343l-94.385-75.967
		l-15.767,4.959l-0.146,0.624c-3.559,15.083-5.562,29.465-6.207,43.126l-0.015,0.002l5.133,17.787l42.041,45.093l80.197,40.579
		l91.853,29.225l31.955-0.131l21.935-8.439l-0.003-0.017C313.317,425.958,322.958,414.821,332.089,402.003L332.089,402.003z"/>
</g>
<path style="fill:#61CCFF;" d="M364.798,343.328c-22.957,16.652-91.763,17.237-174.967-20.573S61.818,232.726,59.263,204.481
	c-0.846,1.786-1.686,3.578-2.508,5.388c-9.21,20.267-15.821,39.56-20.181,57.841c3.125,4.176,6.513,8.363,10.193,12.554
	c28.872,32.876,72.57,63.613,123.041,86.549s102.365,35.639,146.119,35.767c5.577,0.016,10.96-0.185,16.161-0.577
	c10.904-15.307,21.09-32.975,30.301-53.242C363.212,346.951,364.009,345.14,364.798,343.328z"/>
<path style="fill:#94D77F;" d="M154.31,400.92c-47.605-21.634-88.536-49.685-115.253-78.989c-3.221-3.533-6.17-7.029-8.852-10.469
	c-1.047,22.17,1.506,42.427,6.906,60.646c27.773,23.613,62.794,45.433,101.626,63.08c38.832,17.647,78.301,29.678,114.355,35.07
	c17.276-7.914,34.215-19.313,50.226-34.682c-4.355,0.241-8.928,0.319-13.708,0.216C249.966,434.938,201.915,422.553,154.31,400.92z"
	/>
<path style="opacity:0.1;enable-background:new    ;" d="M79.622,360.001c-1.51-17.482-0.643-36.383,3.062-56.622
	c4.061-22.181,11.531-45.969,23.026-71.264c16.832-37.038,38.691-69.205,63.064-95.697c19.089-20.747,39.718-38.004,60.696-51.375
	c38.818-24.743,78.809-36.178,112.359-31.773c-7.019-6.188-14.626-11.213-22.757-14.908c-37.535-17.058-89.002-7.151-138.555,24.435
	c-20.978,13.371-41.607,30.627-60.696,51.375c-24.373,26.491-46.232,58.659-63.064,95.697
	c-11.495,25.294-18.964,49.083-23.026,71.264c-3.705,20.239-4.572,39.14-3.062,56.622c5.641,65.292,44.416,110.819,92.133,132.503
	c8.15,3.704,16.658,6.734,25.418,9.053C111.769,454.676,84.299,414.142,79.622,360.001z"/>
<g>
	<path style="fill:#CACED9;" d="M300.984,332.271c27.882-133.095,14.844-189.393-22.062-189.015
		c-36.906,0.376-48.792,56.928-18.199,189.426L300.984,332.271z"/>
	<path style="fill:#CACED9;" d="M331.72,350.39c102.95-88.842,158.52-104.696,176.06-72.223
		c17.54,32.473-26.183,70.255-156.925,107.648L331.72,350.39z"/>
</g>
<path style="fill:#DDE1ED;" d="M362.299,419.842c22.283-37.801,9.704-86.508-28.097-108.792
	c-37.801-22.283-86.508-9.704-108.792,28.097c-35.008-20.637-117.464,79.229,3.491,150.532S397.307,440.479,362.299,419.842z"/>
<path style="opacity:0.1;enable-background:new    ;" d="M250.41,500.434c-120.956-71.303-38.499-171.168-3.491-150.532
	c19.236-32.632,58.161-46.445,92.764-35.284c-1.769-1.246-3.584-2.449-5.482-3.567c-37.801-22.283-86.508-9.704-108.792,28.097
	c-35.008-20.637-117.465,79.229,3.491,150.532c8.166,4.814,15.992,8.745,23.484,11.9C251.729,501.2,251.073,500.823,250.41,500.434z
	"/>
<g>
	<circle style="fill:#43434D;" cx="245.523" cy="377.576" r="9.119"/>
	<path style="fill:#43434D;" d="M290.279,438.876c-7.199-0.409-12.143-2.201-13.561-4.919c-1.913-3.663,0.803-10.672,2.642-13.988
		c0.302-0.495,0.509-0.86,0.618-1.057c2.116-3.823,0.803-8.636-2.961-10.854c-3.764-2.22-8.611-1.037-10.931,2.666
		c-0.124,0.197-0.353,0.572-0.653,1.1c-1.865,2.962-6.69,8.918-10.914,9.037c-3.063,0.103-7.038-3.369-10.889-9.483
		c-2.375-3.768-7.354-4.9-11.124-2.525c-3.769,2.375-4.9,7.354-2.525,11.123c7.276,11.551,15.687,17.263,24.995,17.01
		c1.935-0.055,3.774-0.373,5.512-0.889c0.39,1.77,1.002,3.533,1.892,5.252c4.277,8.272,13.357,12.86,26.986,13.632
		c0.156,0.009,0.311,0.013,0.465,0.013c4.246,0,7.802-3.317,8.045-7.609C298.127,442.938,294.726,439.129,290.279,438.876z"/>
</g>
<ellipse transform="matrix(0.5078 -0.8615 0.8615 0.5078 -218.83 439.4642)" style="fill:#FFA0C1;" cx="275.166" cy="411.233" rx="7.743" ry="11.737"/>
<circle style="fill:#43434D;" cx="318.933" cy="420.852" r="9.119"/>
<path style="fill:#FFD77A;" d="M200.652,108.272c-6.373-9.051-11.587-18.828-15.989-28.984
	c-13.276-30.633-42.429-51.802-75.715-54.907l0,0C119.067,10.741,119.467,0,119.467,0S100.31,1.156,91.029,10.435
	c-3.57,3.569-9.082,4.419-13.561,2.09c-11.644-6.054-30.26-1.389-30.26-1.389s3.616,10.123,17.372,20.083l0,0
	C33.773,44.202,12.345,73.164,8.908,106.374c-1.14,11.01-3.168,21.905-6.52,32.454c-8.057,25.355,6.576,94.606,113.526,78.124
	S215.968,130.025,200.652,108.272z"/>
<g style="opacity:0.1;">
	<path d="M64.579,31.219C33.773,44.202,12.346,73.164,8.908,106.374c-1.14,11.01-3.168,21.904-6.52,32.454
		c-7.54,23.727,4.799,85.896,94.071,80.267c-69.746-4.864-79.448-58.595-72.562-80.267c3.352-10.549,5.382-21.443,6.52-32.454
		C33.855,73.164,33.773,44.202,64.579,31.219L64.579,31.219z"/>
</g>
<g>
	<circle style="fill:#43434D;" cx="57.569" cy="113.889" r="9.679"/>
	<circle style="fill:#43434D;" cx="140.528" cy="101.102" r="9.679"/>
</g>
<path style="fill:#ED9472;" d="M137.027,136.234l-34.464-5.908l-31.086,16.014c0.005,0.039,0.009,0.076,0.014,0.115
	c2.279,14.786,18.801,24.51,36.904,21.721s30.931-17.037,28.653-31.823C137.043,136.311,137.034,136.273,137.027,136.234z"/>
<path style="fill:#FF9E78;" d="M104.983,146.019c12.316-1.898,23.395-5.412,32.01-9.779l0.034-0.006
	c-2.348-14.72-18.828-24.386-36.882-21.603c-18.056,2.782-30.862,16.964-28.667,31.708l0.033-0.008
	C81.042,147.902,92.666,147.917,104.983,146.019z"/>
</svg>